<svg width="148" height="29" viewBox="0 0 148 29" fill="none" xmlns="http://www.w3.org/2000/svg">
<path opacity="0.9" d="M13.075 6.13788C13.4578 5.37226 14.5424 5.40416 14.8933 6.13788L16.9988 10.3807L21.6563 11.0506C22.4858 11.1782 22.8048 12.1991 22.1987 12.8052L18.8491 16.091L19.6466 20.7167C19.7742 21.5461 18.881 22.1841 18.1472 21.8013L14.0001 19.6001L9.82106 21.8013C9.08734 22.1841 8.19411 21.5461 8.32171 20.7167L9.11924 16.091L5.76963 12.8052C5.16351 12.1991 5.48252 11.1782 6.31195 11.0506L11.0014 10.3807L13.075 6.13788Z" fill="#FF9A60"/>
<path opacity="0.9" d="M43.0752 6.13788C43.458 5.37226 44.5427 5.40416 44.8936 6.13788L46.999 10.3807L51.6566 11.0506C52.486 11.1782 52.805 12.1991 52.1989 12.8052L48.8493 16.091L49.6468 20.7167C49.7744 21.5461 48.8812 22.1841 48.1475 21.8013L44.0003 19.6001L39.8213 21.8013C39.0876 22.1841 38.1944 21.5461 38.322 20.7167L39.1195 16.091L35.7699 12.8052C35.1638 12.1991 35.4828 11.1782 36.3122 11.0506L41.0016 10.3807L43.0752 6.13788Z" fill="#FF9A60"/>
<path opacity="0.9" d="M73.0752 6.13788C73.458 5.37226 74.5427 5.40416 74.8936 6.13788L76.999 10.3807L81.6566 11.0506C82.486 11.1782 82.805 12.1991 82.1989 12.8052L78.8493 16.091L79.6468 20.7167C79.7744 21.5461 78.8812 22.1841 78.1475 21.8013L74.0003 19.6001L69.8213 21.8013C69.0876 22.1841 68.1944 21.5461 68.322 20.7167L69.1195 16.091L65.7699 12.8052C65.1638 12.1991 65.4828 11.1782 66.3122 11.0506L71.0016 10.3807L73.0752 6.13788Z" fill="#FF9A60"/>
<path opacity="0.9" d="M103.075 6.13788C103.458 5.37226 104.543 5.40416 104.894 6.13788L106.999 10.3807L111.657 11.0506C112.486 11.1782 112.805 12.1991 112.199 12.8052L108.849 16.091L109.647 20.7167C109.774 21.5461 108.881 22.1841 108.147 21.8013L104 19.6001L99.8213 21.8013C99.0876 22.1841 98.1944 21.5461 98.322 20.7167L99.1195 16.091L95.7699 12.8052C95.1638 12.1991 95.4828 11.1782 96.3122 11.0506L101.002 10.3807L103.075 6.13788Z" fill="#FF9A60"/>
<path opacity="0.9" d="M133.075 6.13788C133.458 5.37226 134.543 5.40416 134.894 6.13788L136.999 10.3807L141.657 11.0506C142.486 11.1782 142.805 12.1991 142.199 12.8052L138.849 16.091L139.647 20.7167C139.774 21.5461 138.881 22.1841 138.147 21.8013L134 19.6001L129.821 21.8013C129.088 22.1841 128.194 21.5461 128.322 20.7167L129.119 16.091L125.77 12.8052C125.164 12.1991 125.483 11.1782 126.312 11.0506L131.002 10.3807L133.075 6.13788Z" fill="#FF9A60"/>
</svg>
